# xmcd
#
# Track frame offsets: 
#        150
#        12414
#        24145
#        37164
#        50014
#        63921
#        74937
#        85279
#        98563
#        110376
#        122916
#        135667
#        148908
#        161730
#
# Disc length: 2335 seconds
#
# Revision: 1
# Processed by: cddbd v1.5.2PL0 Copyright (c) Steve Scherf et al.
# Submitted via: ExactAudioCopyFreeDBPlugin 1.0
#
DISCID=cc091d0e
DTITLE=Charles, Ray - Blues In A Sentimental Key
DYEAR=2008
DGENRE=Blues
TTITLE0=It should have been me
TTITLE1=Roll with the baby
TTITLE2=Ray's blues
TTITLE3=I've got a woman
TTITLE4=I'm going down the river
TTITLE5=A sentimental blues
TTITLE6=Sitting on top of the world
TTITLE7=Alone in the city
TTITLE8=The sun's gonna shine again
TTITLE9=Rockin' chair blues
TTITLE10=Can anyone als dor more
TTITLE11=Baby, won't you please come home?
TTITLE12=Heartbreaker
TTITLE13=The midnight hour
EXTD=YEAR: 0
EXTT0=
EXTT1=
EXTT2=
EXTT3=
EXTT4=
EXTT5=
EXTT6=
EXTT7=
EXTT8=
EXTT9=
EXTT10=
EXTT11=
EXTT12=
EXTT13=
PLAYORDER=
